<svg width="374" height="411" viewBox="0 0 374 411" fill="none" xmlns="http://www.w3.org/2000/svg">
<path fill-rule="evenodd" clip-rule="evenodd" d="M74.416 527.548C59.9172 481.392 82.0603 360.171 101.659 308.012C119.872 259.54 131.258 238.47 175.338 199.82C217.618 162.749 299.67 133.723 351.352 109.789C417.585 79.1159 490.166 -3.37408 545.847 19.1013C603.125 42.2213 567.554 127.888 576.029 185.26C581.663 223.398 589.393 258.419 587.117 298.478C584.284 348.323 605.112 404.504 561.176 446.631C517.302 488.7 446.87 465.706 389.393 488.063C318.651 515.581 258.055 597.988 190.497 590.82C125.068 583.878 91.1909 580.95 74.416 527.548Z" fill="url(#paint0_linear_8908_355)" fill-opacity="0.3"/>
<defs>
<linearGradient id="paint0_linear_8908_355" x1="627.318" y1="344.107" x2="130.63" y2="331.782" gradientUnits="userSpaceOnUse">
<stop stop-color="#9EE6F7" stop-opacity="0"/>
<stop offset="1" stop-color="#9EE6F7" stop-opacity="0.46"/>
</linearGradient>
</defs>
</svg>
