<svg width="350" height="860" viewBox="0 0 350 860" fill="none" xmlns="http://www.w3.org/2000/svg">
<g opacity="0.8">
<path fill-rule="evenodd" clip-rule="evenodd" d="M-81.79 -40.0417C-34.2501 -31.0673 62.2139 45.6116 98.9722 87.4865C133.132 126.401 146.345 146.375 159.648 203.471C172.408 258.235 159.321 344.28 156.062 401.142C151.886 474.013 190.414 576.912 144.342 615.42C96.948 655.033 38.1704 583.275 -16.4213 563.7C-52.7114 550.688 -87.2398 540.994 -121.494 520.1C-164.116 494.103 -223.481 485.983 -239.919 427.375C-256.333 368.849 -202.849 317.577 -195.468 256.348C-186.384 180.988 -230.489 88.6976 -192.316 32.4982C-155.347 -21.9292 -136.793 -50.4247 -81.79 -40.0417Z" fill="url(#paint0_linear_8908_354)" fill-opacity="0.3"/>
<path fill-rule="evenodd" clip-rule="evenodd" d="M-98.2134 72.0819C-56.104 72.1657 -14.4498 84.4068 21.2933 114.953C54.5104 143.339 76.4614 188.03 93.2191 235.678C109.293 281.379 94.5758 321.601 96.9272 371.743C99.9401 436.002 145.318 527.069 108.81 568.173C71.2551 610.457 13.6641 557.427 -35.5365 549.245C-68.2422 543.804 -99.1166 540.972 -130.773 528.325C-170.161 512.587 -222.464 515.176 -242.082 466.721C-261.672 418.333 -219.891 364.883 -219.059 310.259C-218.036 243.028 -264.755 169.693 -236.72 114.439C-209.57 60.9293 -146.933 71.985 -98.2134 72.0819Z" fill="url(#paint1_linear_8908_354)" fill-opacity="0.4"/>
<path opacity="0.4" fill-rule="evenodd" clip-rule="evenodd" d="M-88.6291 170.849C-49.6355 185.12 -13.3558 210.402 13.9968 250.5C39.4158 287.763 51.3254 336.201 57.8668 385.604C64.1405 432.987 57.6881 478.694 50.4136 525.531C41.0899 585.553 51.1945 670.74 9.62585 696.178C-33.1349 722.346 -76.4888 654.237 -120.524 630.137C-149.795 614.117 -177.863 601.11 -204.803 578.825C-238.325 551.095 -287.264 535.843 -296.303 484.735C-305.329 433.697 -256.547 398.701 -245.479 348.822C-231.856 287.432 -261.309 204.342 -224.923 163.054C-189.684 123.07 -133.743 154.336 -88.6291 170.849Z" fill="url(#paint2_linear_8908_354)" fill-opacity="0.6"/>
</g>
<defs>
<linearGradient id="paint0_linear_8908_354" x1="-180.687" y1="534.041" x2="64.351" y2="101.829" gradientUnits="userSpaceOnUse">
<stop stop-color="#9EE6F7" stop-opacity="0"/>
<stop offset="1" stop-color="#9EE6F7" stop-opacity="0.46"/>
</linearGradient>
<linearGradient id="paint1_linear_8908_354" x1="-191.284" y1="546.343" x2="-38.3054" y2="121.941" gradientUnits="userSpaceOnUse">
<stop stop-color="#9EE6F7" stop-opacity="0"/>
<stop offset="1" stop-color="#9EE6F7" stop-opacity="0.46"/>
</linearGradient>
<linearGradient id="paint2_linear_8908_354" x1="-264.256" y1="574.973" x2="-16.7187" y2="256.916" gradientUnits="userSpaceOnUse">
<stop stop-color="#005AE2"/>
<stop offset="1" stop-color="#73E6FF" stop-opacity="0.38"/>
</linearGradient>
</defs>
</svg>
