<svg width="2" height="26" viewBox="0 0 2 26" fill="none" xmlns="http://www.w3.org/2000/svg">
<rect width="2" height="26" fill="#F5F5F5"/>
<g id="UpdatedDesign">
<g id="footer" clip-path="url(#clip0_26_2)">
<rect width="1440" height="561" transform="translate(-242 -102)" fill="white"/>
<g id="Frame 1000001714">
<g id="Logo">
<path id="Vector 2" d="M1 1V25" stroke="#141414" stroke-width="2" stroke-linecap="round"/>
</g>
</g>
<g id="Group 3" opacity="0.8">
<path id="Vector" fill-rule="evenodd" clip-rule="evenodd" d="M-165.79 -19.0417C-118.25 -10.0673 -21.7861 66.6116 14.9722 108.487C49.1321 147.401 62.3454 167.375 75.6485 224.471C88.4081 279.235 75.321 365.28 72.0623 422.142C67.8857 495.013 106.414 597.912 60.3416 636.42C12.948 676.033 -45.8296 604.275 -100.421 584.7C-136.711 571.688 -171.24 561.994 -205.494 541.1C-248.116 515.103 -307.481 506.983 -323.919 448.375C-340.333 389.849 -286.849 338.577 -279.468 277.348C-270.384 201.988 -314.489 109.698 -276.316 53.4982C-239.347 -0.929226 -220.793 -29.4247 -165.79 -19.0417Z" fill="url(#paint0_linear_26_2)" fill-opacity="0.3"/>
<path id="Vector_2" fill-rule="evenodd" clip-rule="evenodd" d="M-182.213 93.0819C-140.104 93.1657 -98.4498 105.407 -62.7067 135.953C-29.4896 164.339 -7.53862 209.03 9.21914 256.678C25.2927 302.379 10.5758 342.601 12.9272 392.743C15.9401 457.002 61.3178 548.069 24.8104 589.173C-12.7449 631.457 -70.3359 578.427 -119.537 570.245C-152.242 564.804 -183.117 561.972 -214.773 549.325C-254.161 533.587 -306.464 536.176 -326.082 487.721C-345.672 439.333 -303.891 385.883 -303.059 331.259C-302.036 264.028 -348.755 190.693 -320.72 135.439C-293.57 81.9293 -230.933 92.985 -182.213 93.0819Z" fill="url(#paint1_linear_26_2)" fill-opacity="0.4"/>
</g>
</g>
</g>
<defs>
<linearGradient id="paint0_linear_26_2" x1="-264.687" y1="555.041" x2="-19.649" y2="122.829" gradientUnits="userSpaceOnUse">
<stop stop-color="#9EE6F7" stop-opacity="0"/>
<stop offset="1" stop-color="#9EE6F7" stop-opacity="0.46"/>
</linearGradient>
<linearGradient id="paint1_linear_26_2" x1="-275.284" y1="567.343" x2="-122.305" y2="142.941" gradientUnits="userSpaceOnUse">
<stop stop-color="#9EE6F7" stop-opacity="0"/>
<stop offset="1" stop-color="#9EE6F7" stop-opacity="0.46"/>
</linearGradient>
<clipPath id="clip0_26_2">
<rect width="1440" height="561" fill="white" transform="translate(-242 -102)"/>
</clipPath>
</defs>
</svg>
